<?xml version="1.0" encoding="UTF-8"?>
<svg id="Layer_1" data-name="Layer 1" xmlns="http://www.w3.org/2000/svg" viewBox="0 0 350.55 261.11">
  <defs>
    <style>
      .cls-1 {
        fill: #262626;
      }

      .cls-2 {
        fill: #959595;
      }

      .cls-3 {
        fill: gray;
      }
    </style>
  </defs>
  <path class="cls-1" d="m235.38,37.27c18.2,10.54,33.37,25.73,43.89,43.94l-103.94,59.94,60.05-103.88Z"/>
  <path class="cls-1" d="m55.37,141.08c.01-21.86,5.87-42.34,16.09-59.98l103.88,60.05-119.97-.06Z"/>
  <path class="cls-2" d="m175.4,21.18c21.86.01,42.34,5.87,59.98,16.09l-60.05,103.88.06-119.97Z"/>
  <path class="cls-1" d="m115.4,37.21c17.65-10.2,38.14-16.04,60-16.03l-.06,119.97-59.94-103.94Z"/>
  <path class="cls-2" d="m279.28,81.21c10.2,17.65,16.04,38.14,16.03,60l-119.97-.06,103.94-59.94Z"/>
  <path class="cls-2" d="m71.46,81.1c10.54-18.2,25.73-33.37,43.94-43.89l59.94,103.94-103.88-60.05Z"/>
  <path class="cls-2" d="m175.27,261.11c-21.86-.01-42.34-5.87-59.98-16.09l60.05-103.88-.06,119.97Z"/>
  <path class="cls-1" d="m295.3,141.21c-.01,21.86-5.87,42.34-16.09,59.98l-103.88-60.05,119.97.06Z"/>
  <path class="cls-2" d="m175.34,141.15l-103.94,59.94c-10.2-17.65-16.04-38.14-16.03-60l119.97.06Z"/>
  <path class="cls-1" d="m115.29,245.02c-18.2-10.54-33.37-25.73-43.89-43.94l103.94-59.94-60.05,103.88Z"/>
  <path class="cls-1" d="m235.27,245.09c-17.65,10.2-38.14,16.04-60,16.03l.06-119.97,59.94,103.94Z"/>
  <path class="cls-2" d="m279.21,201.19c-10.54,18.2-25.73,33.37-43.94,43.89l-59.94-103.94,103.88,60.05Z"/>
  <rect class="cls-3" width="350.55" height="21.24"/>
</svg>