<?xml version="1.0" encoding="UTF-8"?>
<svg id="Layer_1" data-name="Layer 1" xmlns="http://www.w3.org/2000/svg" viewBox="0 0 337.85 277.45">
  <defs>
    <style>
      .cls-1 {
        fill: #262626;
      }

      .cls-2 {
        font-family: ArialMT, Arial;
        font-size: 70px;
      }

      .cls-2, .cls-3 {
        fill: #231f20;
      }

      .cls-4 {
        fill: #959595;
      }

      .cls-5 {
        fill: none;
        stroke: #231f20;
        stroke-miterlimit: 10;
        stroke-width: 10px;
      }
    </style>
  </defs>
  <path class="cls-1" d="m265.42,53.61c18.2,10.54,33.37,25.73,43.89,43.94l-103.94,59.94,60.05-103.88Z"/>
  <path class="cls-1" d="m85.41,157.42c.01-21.86,5.87-42.34,16.09-59.98l103.88,60.05-119.97-.06Z"/>
  <path class="cls-4" d="m205.44,37.52c21.86.01,42.34,5.87,59.98,16.09l-60.05,103.88.06-119.97Z"/>
  <path class="cls-1" d="m145.44,53.55c17.65-10.2,38.14-16.04,60-16.03l-.06,119.97-59.94-103.94Z"/>
  <path class="cls-4" d="m309.31,97.55c10.2,17.65,16.04,38.14,16.03,60l-119.97-.06,103.94-59.94Z"/>
  <path class="cls-4" d="m101.5,97.44c10.54-18.2,25.73-33.37,43.94-43.89l59.94,103.94-103.88-60.05Z"/>
  <path class="cls-4" d="m205.31,277.45c-21.86-.01-42.34-5.87-59.98-16.09l60.05-103.88-.06,119.97Z"/>
  <path class="cls-1" d="m325.34,157.55c-.01,21.86-5.87,42.34-16.09,59.98l-103.88-60.05,119.97.06Z"/>
  <path class="cls-4" d="m205.37,157.49l-103.94,59.94c-10.2-17.65-16.04-38.14-16.03-60l119.97.06Z"/>
  <path class="cls-1" d="m145.33,261.36c-18.2-10.54-33.37-25.73-43.89-43.94l103.94-59.94-60.05,103.88Z"/>
  <path class="cls-1" d="m265.31,261.43c-17.65,10.2-38.14,16.04-60,16.03l.06-119.97,59.94,103.94Z"/>
  <path class="cls-4" d="m309.25,217.53c-10.54,18.2-25.73,33.37-43.94,43.89l-59.94-103.94,103.88,60.05Z"/>
  <g>
    <path class="cls-5" d="m333.93,67.71c-5.39-6.82-51.72-63.33-130.84-62.71-47.98.37-83.58,21.57-105.39,39.78"/>
    <polygon class="cls-3" points="73.02 70.04 93.9 20.52 99.89 43.25 122.6 49.3 73.02 70.04"/>
  </g>
  <text class="cls-2" transform="translate(50.55 184.05) rotate(-180) scale(1 -1)"><tspan x="0" y="0">H</tspan></text>
</svg>