<?xml version="1.0" encoding="UTF-8"?>
<svg id="Layer_1" data-name="Layer 1" xmlns="http://www.w3.org/2000/svg" viewBox="0 0 350.55 274.42">
  <defs>
    <style>
      .cls-1 {
        fill: #262626;
      }

      .cls-2 {
        fill: #959595;
      }

      .cls-3 {
        fill: gray;
      }
    </style>
  </defs>
  <path class="cls-1" d="m235.26,16.09c18.2,10.54,33.37,25.73,43.89,43.94l-103.94,59.94,60.05-103.88Z"/>
  <path class="cls-1" d="m55.24,119.9c.01-21.86,5.87-42.34,16.09-59.98l103.88,60.05-119.97-.06Z"/>
  <path class="cls-2" d="m175.27,0c21.86.01,42.34,5.87,59.98,16.09l-60.05,103.88L175.27,0Z"/>
  <path class="cls-1" d="m115.27,16.03C132.93,5.82,153.42-.01,175.27,0l-.06,119.97L115.27,16.03Z"/>
  <path class="cls-2" d="m279.15,60.03c10.2,17.65,16.04,38.14,16.03,60l-119.97-.06,103.94-59.94Z"/>
  <path class="cls-2" d="m71.33,59.92c10.54-18.2,25.73-33.37,43.94-43.89l59.94,103.94-103.88-60.05Z"/>
  <path class="cls-2" d="m175.15,239.93c-21.86-.01-42.34-5.87-59.98-16.09l60.05-103.88-.06,119.97Z"/>
  <path class="cls-1" d="m295.18,120.03c-.01,21.86-5.87,42.34-16.09,59.98l-103.88-60.05,119.97.06Z"/>
  <path class="cls-2" d="m175.21,119.97l-103.94,59.94c-10.2-17.65-16.04-38.14-16.03-60l119.97.06Z"/>
  <path class="cls-1" d="m115.16,223.84c-18.2-10.54-33.37-25.73-43.89-43.94l103.94-59.94-60.05,103.88Z"/>
  <path class="cls-1" d="m235.15,223.91c-17.65,10.2-38.14,16.04-60,16.03l.06-119.97,59.94,103.94Z"/>
  <path class="cls-2" d="m279.09,180.01c-10.54,18.2-25.73,33.37-43.94,43.89l-59.94-103.94,103.88,60.05Z"/>
  <rect class="cls-3" y="253.18" width="350.55" height="21.24"/>
</svg>